<svg width="24" height="24" fill="none" xmlns="http://www.w3.org/2000/svg"><path d="M7 16.3c2.2 0 4-1.83 4-4.05 0-1.16-.57-2.26-1.71-3.19-1.14-.93-2-2.31-2.29-3.76a6.585 6.585 0 01-2.29 3.76C3.56 9.98 3 11.1 3 12.25c0 2.22 1.8 4.05 4 4.05z" stroke="#A6A09B" stroke-width="2" stroke-linecap="round" stroke-linejoin="round"/><path d="M12.56 6.6A10.97 10.97 0 0014 3.02c.5 2.5 2 4.9 4 6.5 2 1.6 3 3.5 3 5.5a6.98 6.98 0 01-11.91 4.97" stroke="#A6A09B" stroke-width="2" stroke-linecap="round" stroke-linejoin="round"/></svg>